<svg xmlns="http://www.w3.org/2000/svg" viewBox="0 0 98.97 64.79"><g id="f68e990f-777e-4612-a535-27cb4e8e0789" data-name="Layer 2"><g id="b636441d-00a0-49e6-a786-f945450d7f81" data-name="Layer 1"><path d="M24.92,14.29H99l-.2,1.13L95,36.08l-1.14,6.16-2,10.53-.14.8H31.05l-.17-.8-3.1-16.69-1.51-8.26L24,15.42l-.21-1.13Zm35.7,2H53.39l.45,9.67L54,28.68h6.64Zm-9.15,0H44.24l1.13,12.43H52L51.91,26Zm-9.2,0H35.05l1.34,9.57.41,2.86h6.65Zm-9.19,0h-7l2.1,11.22.21,1.21h6.44l-.38-2.59Zm63.59,0H90.09l-1.37,9.84-.38,2.59h6Zm-8.54,0H80.94L79.73,28.68h6.64l.42-2.86Zm-9.16,0H71.74L71.26,26l-.1,2.69H77.8Zm-9.15,0H62.59l0,12.43H69.2l.13-2.76ZM93.05,35.7,94,30.64H88.06L87.3,36l-.68,4.69h5.5Zm-3,15.9,1.65-8.91h-5.4l-.48,3.47-.79,5.44Zm-27.54,0h5.54l.28-5.68.14-3.23h-6V51.6Zm7.51,0H75.6c.24-2.3.45-4.71.69-7.16l.17-1.75h-6L70.3,46Zm7.5,0H83.1l.83-5.71.45-3.2h-6l-.2,1.93c-.21,2.41-.45,4.71-.66,7Zm-44.89,0H38l-.58-4.13-.69-4.78H31Zm7.33,0h5.55c-.25-2.85-.52-5.81-.83-8.91h-6l.62,4.51Zm7.51,0h5.57l-.27-5.44-.14-3.47h-6c.28,3.1.55,6.06.83,8.91Zm7.5,0h5.58V42.69h-6l.17,3.37ZM29.71,35.73l.93,5h5.89L35.87,36l-.76-5.4H28.78Zm7.37-5.09.69,5.13.72,5h6.06l-.42-4.48,0-.31-.48-5.33Zm8.5,0L46,35.8l0,.31.45,4.62h6.06l-.21-4.79-.24-5.3Zm8.47,0,.24,5.2.24,4.89h6.09V30.64Zm8.5,0V40.73h6.06l.24-4.89.24-5.2Zm8.5,0-.27,5.3-.21,4.79h6.06l.48-4.93.49-5.16Zm8.51,0L79,36l-.45,4.76h6.06l.73-5,.72-5.13Z" style="fill:#6b777e"/><path d="M89.47,57.56H25.3L12.67,3a1,1,0,0,0-1.17-.72h0a.94.94,0,0,0-.72,1.17c4.88,21.07,7.91,34.25,12.8,55.35a.92.92,0,0,0,.83.73H89.47a1,1,0,0,0,1-1h0a1,1,0,0,0-1-1Z" style="fill:#6b777e;fill-rule:evenodd"/><path d="M38.8,56.8a4,4,0,1,1-4,4,4,4,0,0,1,4-4Z" style="fill:#40484c;fill-rule:evenodd"/><path d="M38.8,59.52a1.27,1.27,0,0,1,1.27,1.28,1.28,1.28,0,0,1-2.55,0,1.26,1.26,0,0,1,1.28-1.28Z" style="fill:#92a2ab;fill-rule:evenodd"/><path d="M80.14,56.8a4,4,0,1,1-4,4,4,4,0,0,1,4-4Z" style="fill:#40484c;fill-rule:evenodd"/><path d="M80.14,59.52a1.28,1.28,0,0,1,1.28,1.28,1.3,1.3,0,0,1-1.28,1.27,1.27,1.27,0,0,1-1.27-1.27,1.25,1.25,0,0,1,1.27-1.28Z" style="fill:#92a2ab;fill-rule:evenodd"/><rect x="18.21" y="28.68" width="15.39" height="1.96" style="fill:#6b777e"/><rect x="20.41" y="40.73" width="13.19" height="1.96" style="fill:#6b777e"/><path d="M11.7,2.2H3.17a.92.92,0,0,0-.93.9h0A.9.9,0,0,0,3.17,4H11.7a.87.87,0,0,0,.9-.89h0a.9.9,0,0,0-.9-.9Z" style="fill:#6b777e;fill-rule:evenodd"/><path d="M3.1,0a3.14,3.14,0,0,1,0,6.27A3.14,3.14,0,0,1,3.1,0Z" style="fill:#c02012;fill-rule:evenodd"/></g></g></svg>